 <svg
      xmlns="http://www.w3.org/2000/svg"
      x="0"
      y="0"
      version="1.1"
      viewBox="260.57 349.89 504.83 326.24"
      xmlSpace="preserve"
    >
      <path
        d="M368.658 587.043c-7.508-35.722 18.833-72.22 54.777-76.415 27.08-3.16 52.94 10.754 64.678 34.803 12.338 25.278 7.826 55.116-11.204 74.53-16.761 17.098-37.17 23.897-60.173 17.986-25.908-6.657-41.615-24.506-48.078-50.904m90.499-63.712c-11.68-7.057-24.42-8.878-37.586-6.535-32.109 5.712-52.626 36.885-46.358 69.869 5.744 30.224 33.433 50.987 63.913 46.827 28.286-3.862 49.766-28.722 49.34-59.543-.297-21.548-10.076-38.66-29.31-50.618zM525.261 533.919c-.585-1.018-.96-1.78-1.438-2.75-2.215 2.657-1.553 4.728-1.556 6.613-.053 30.814-.045 61.629-.051 92.443 0 1.332.015 2.665-.017 3.997-.054 2.252-.175 4.638-3.247 4.569-3.108-.07-3.04-2.567-3.041-4.75-.024-38.309-.028-76.618-.017-114.928 0-1.293-.211-2.702 2.064-4.533l86.765 108.495c1.407-2.169.88-4.034.882-5.77.05-31.648.046-63.294.059-94.941 0-1.499.013-2.999.074-4.496.06-1.505.734-2.595 2.354-2.685 1.74-.096 2.881.743 3.086 2.534.133 1.154.148 2.326.149 3.49.008 37.81.015 75.62-.014 113.429 0 1.421.494 2.999-1.494 5.026a1425186.72 1425186.72 0 00-84.558-105.743zM594.047 455.093c-8.56-1.605-12.727 2.1-15.737 9.5-4.32 10.618-9.91 20.715-14.742 31.133-1.57 3.384-3.646 4.465-8.191 2.782l57.76-119.133 1.83-.324 58.113 119.382c-4.267 2.366-6.28.963-7.952-2.483-5.745-11.833-11.853-23.493-17.406-35.413-2.004-4.303-4.6-5.684-9.217-5.594-14.65.286-29.31.132-44.458.15m31.705-39.416l-11.875-24.335-27.627 57.612h55.909c-5.655-11.452-10.874-22.025-16.407-33.277zM422.284 472.706c-2.84-3.007-5.436-5.76-9.015-9.554 0 10.058.003 18.803-.002 27.547 0 2-.004 4-.052 6-.042 1.778-.924 2.766-2.774 2.822-1.902.056-3.306-.495-3.442-2.67a48.235 48.235 0 01-.079-2.997c0-35.332-.006-70.664.012-105.996.004-7.088.045-7.033 7.36-7.087 5.723-.043 11.31.766 16.674 2.698 19.03 6.853 28.174 31.007 19.056 50.553-5.993 12.846-15.806 20.767-30.197 22.413a6.771 6.771 0 00-1.455.34c-.3.105-.552.345-1.436.925 6.342 6.827 12.577 13.604 18.885 20.312 6.24 6.636 12.783 12.998 18.742 20.443-3.946 1.899-6.719 1.148-9.292-1.587-7.538-8.008-15.155-15.943-22.985-24.162m17.232-76.689c-5.339-6.246-12.586-8.264-20.326-9.41-4.163-.618-6.06.27-6 5.026.22 17.3.08 34.604.08 51.907 0 7.63.783 8.297 8.323 7.084.818-.132 1.624-.352 2.426-.567 21.668-5.796 30.181-34.345 15.497-54.04zM313.117 392.26c4.402 12.22 1.745 22.26-7.858 30.52.797 2.164 2.975 1.965 4.512 2.556 9.736 3.748 16.029 10.655 18.817 20.589 7.396 26.347-7.36 53.38-38.434 53.754-3.86.047-5.286-1.21-5.275-5.157.1-36.158.036-72.316.067-108.475.005-5.445 1.193-6.503 6.541-5.988 8.843.852 17.358 2.394 21.63 12.201m-10.512 99.986c16.15-6.532 23.41-20.441 21.047-40.324-1.65-13.883-10.365-21.991-26.197-24.371-5.317-.8-6.147-.124-6.153 5.275-.018 17.664 0 35.329-.002 52.993 0 8.679.743 9.258 9.097 7.043.483-.128.972-.235 2.208-.616m-11.279-73.438c.17 3.526 2.457 2.815 4.635 2.314 9.107-2.096 14.092-10.823 12.747-22.312-.824-7.032-5.703-11.742-12.706-12.575-3.468-.412-4.816.756-4.755 4.317.155 9.13.056 18.264.08 28.256zM478.286 439.018c-.011 18.202-.018 36.021-.031 53.84a79.013 79.013 0 01-.08 3.995c-.095 1.857-1.175 2.603-2.966 2.577-1.696-.025-2.984-.59-3.184-2.438-.16-1.484-.177-2.989-.178-4.485-.017-34.973-.023-69.945-.029-104.918 0-1.165.03-2.331.04-3.497.018-2.348.961-3.932 3.534-3.78 2.381.14 2.861 1.854 2.86 3.89-.01 10.49-.028 20.983.038 31.474.011 1.75-.564 3.64 1.03 5.763 3.555-3.03 7.069-5.954 10.504-8.967a14317.42 14317.42 0 0033.742-29.706c2.81-2.48 5.734-3.832 10.224-1.06l-53.76 46.625 66.531 69.96c-4.621 2.505-7.325 1.207-10.024-1.665-18.016-19.172-36.122-38.26-54.21-57.363-1-1.056-1.74-2.447-3.303-2.862-.989.53-.589 1.47-.738 2.617zM291.717 622.275c13.292 14.76 36.24 15.9 48.791 2.68 9.727-10.245 9.98-27.847.506-38.358-5.989-6.645-13.587-11.207-21.012-15.969-6.165-3.953-12.581-7.54-18.196-12.292-8.203-6.944-11.989-15.541-10.532-26.499 1.878-14.135 14.451-20.128 26.437-19.775 8.059.237 15.317 2.93 21.013 9.013 2.676 2.858 3.13 5.95 1.598 9.487-2.53-.142-3.058-2.212-4.192-3.489-5.534-6.228-12.539-9.425-20.739-9.364-7.142.053-13.014 3.25-16.229 9.824-3.327 6.806-2.496 13.658 1.63 19.936 4.144 6.307 10.496 10.129 16.762 13.94 7.83 4.762 15.719 9.435 22.81 15.278 14.71 12.122 18.178 32.977 8.07 48.035-13.404 19.97-47.71 20.349-61.389.677-2.547-3.664-2.708-5.987-.511-10.324a881.527 881.527 0 005.183 7.2zM642.34 547c0 11.666.169 22.836-.087 33.996-.098 4.284 1.055 6.002 5.587 5.775 6.816-.341 13.664-.208 20.492-.025 2.159.058 5.687-1.394 5.785 2.64.097 3.971-3.342 2.913-5.608 2.953-6.831.12-13.673.239-20.496-.024-4.232-.163-5.928 1.035-5.771 5.6.331 9.656.305 19.336.006 28.993-.14 4.508 1.13 6.227 5.854 6.061 9.154-.32 18.329-.132 27.495-.06 2.037.015 4.697-.534 4.814 2.812.124 3.547-2.526 3.36-4.873 3.363-11.499.016-23-.085-34.497.022-3.929.036-5.208-1.684-5.2-5.453.08-37.497.092-74.996.006-112.493-.01-4.041 1.309-5.623 5.502-5.543 11.328.217 22.664.043 33.996.11 2.018.011 4.776-.62 4.85 2.723.074 3.345-2.624 2.877-4.7 2.89-9.332.057-18.667.166-27.996-.026-3.884-.08-5.372 1.231-5.229 5.19.24 6.657.068 13.33.07 20.496zM348.585 445c.005-19.667.136-38.835-.075-57.999-.052-4.736 1.35-6.465 6.222-6.323 10.49.308 20.997.062 31.496.13 2.03.013 4.803-.576 4.889 2.715.087 3.335-2.66 2.84-4.724 2.856-8.666.067-17.334.146-25.998.005-3.906-.063-5.596 1.094-5.569 5.401.114 17.996-.04 35.994-.275 53.99-.044 3.376 1.567 3.845 4.286 3.823 7.333-.058 14.667-.017 22 .063 1.89.02 4.413-.475 4.294 2.658-.109 2.883-2.489 2.72-4.452 2.743-6.832.077-13.67.22-20.497.02-3.787-.11-5.714 1.255-5.588 5.085.336 10.157.58 20.31-.112 30.467-.221 3.236 2.164 3.22 4.42 3.218 8.666-.007 17.333-.024 26-.018 1.33 0 2.674 0 3.986.185 1.824.258 2.428 1.532 2.324 3.25-.102 1.684-1.225 2.364-2.671 2.368-13.118.04-26.236.023-39.955.023V445zM718.62 425.53c-4.052 8.254-7.87 16.206-11.822 24.09-1.166 2.328-1.488 4.698-1.482 7.234.031 12.82-.082 25.642.046 38.461.042 4.22-1.812 4.796-5.74 3.515 0-10.807-.43-21.621.129-32.384.491-9.468-1.63-17.824-6.099-26.18-9.417-17.61-18.177-35.574-27.043-53.473-.912-1.843-4.135-4.42-.569-6.268 3.334-1.727 4.971 1.204 6.31 3.879a20159.095 20159.095 0 0027.367 54.432c.725 1.436 1.031 3.201 3.3 4.436 2.754-5.462 5.528-10.859 8.211-16.3 6.918-14.032 13.793-28.086 20.7-42.123.512-1.043 1.059-2.089 1.74-3.024 1.241-1.707 3.05-2.215 4.845-1.247 2.201 1.188.803 2.887.113 4.295a13988.822 13988.822 0 01-20.006 40.657zM696.704 571c.001-17.157-.015-33.814.023-50.47.006-2.396-.639-5.495 3.215-5.507 3.813-.013 3.302 3.052 3.304 5.473.03 35.312.118 70.625-.082 105.937-.029 4.994 1.256 6.775 6.414 6.543 8.643-.388 17.318-.123 25.98-.064 2.284.016 5.215-.294 5.17 3.11-.043 3.396-3.015 3.002-5.266 3.017-11.16.07-22.322-.072-33.479.127-4.267.076-5.368-1.746-5.343-5.703.133-20.653.064-41.308.064-62.463z"
        opacity="1"
      ></path>
      <path
        d="M701.038 669.902c17.989.001 35.486-.122 52.98.09 4.412.054 5.767-1.416 5.729-5.745-.172-19.494-.074-38.99-.064-58.485 0-1.498-.026-3.008.14-4.492.187-1.666 1.07-2.836 2.937-2.687 1.552.124 2.376 1.113 2.48 2.637a59.49 59.49 0 01.118 3.995c.021 21.328.045 42.656.04 63.984 0 6.176-.695 6.904-6.872 6.914-21.162.032-42.323.038-63.484-.028-2.675-.008-6.753.73-6.754-3.083 0-3.87 4.118-2.823 6.761-3.054 1.82-.158 3.663-.04 5.99-.046zM260.637 389c.001-11.316.157-22.134-.066-32.945-.096-4.641 1.872-6.18 6.229-6.16 21.63.09 43.261.045 64.892.082 1.317.002 2.654.2 3.942.483 1.192.262 2.187.985 2.268 2.325.096 1.582-.97 2.543-2.33 2.818-1.773.36-3.62.494-5.434.497-19.301.03-38.604.132-57.903-.07-4.507-.048-6.067 1.227-6.01 5.909.235 18.965.091 37.936.086 56.904 0 1.331.012 2.663-.016 3.993-.044 2.065-.165 4.394-2.826 4.465-2.808.076-2.788-2.318-2.793-4.356-.024-11.149-.028-22.297-.039-33.945z"
        opacity="1"
      ></path>
    </svg>